<svg xmlns="http://www.w3.org/2000/svg" version="1.1" xmlns:xlink="http://www.w3.org/1999/xlink" xmlns:svgjs="http://svgjs.dev/svgjs" width="1000" height="1000" viewBox="0 0 1000 1000"><rect width="1000" height="1000" fill="#528265"></rect><g transform="matrix(0.7,0,0,0.7,149.57575767614304,354.73829159570585)"><svg viewBox="0 0 396 164" data-background-color="#528265" preserveAspectRatio="xMidYMid meet" height="414" width="1000" xmlns="http://www.w3.org/2000/svg" xmlns:xlink="http://www.w3.org/1999/xlink"><g id="tight-bounds" transform="matrix(1,0,0,1,0.2400000567895404,0.20469431474595012)"><svg viewBox="0 0 395.52 163.5906109665931" height="163.5906109665931" width="395.52"><g><svg viewBox="0 0 573.759347712 237.312" height="163.5906109665931" width="395.52"><g><svg viewBox="0 0 395.52 237.312" height="237.312" width="395.52"><g><svg viewBox="0 0 395.52 237.312" height="237.312" width="395.52"><g><svg viewBox="0 0 395.52 237.312" height="237.312" width="395.52"><g transform="matrix(1,0,0,1,0,0)"><svg width="395.52" viewBox="0.5400000214576721 -30.65999984741211 51.5099983215332 30.899999618530273" height="237.312" data-palette-color="#c9efc7"><path d="M2.39 0.07Q1.42 0.07 0.98-0.11 0.54-0.29 0.54-0.66L0.54-0.66Q0.54-0.83 0.66-1.25L0.66-1.25 10.94-29.79Q11.18-30.49 12.67-30.49L12.67-30.49 13.94-30.49Q15.43-30.49 15.67-29.79L15.67-29.79 25.95-1.22Q26.07-0.95 26.07-0.66L26.07-0.66Q26.07 0.07 24.24 0.07L24.24 0.07 23.88 0.07Q22.36 0.07 22.12-0.61L22.12-0.61 19.58-7.74 6.84-7.74 4.35-0.61Q4.13 0.07 2.61 0.07L2.61 0.07 2.39 0.07ZM8.03-11.04L18.41-11.04 13.87-23.95Q13.67-24.49 13.55-25.17 13.43-25.85 13.33-26.49L13.33-26.49 13.23-26.49Q12.94-24.85 12.57-23.95L12.57-23.95 8.03-11.04ZM43.06 0.24Q35.94 0.24 32.52-3.52 29.1-7.28 29.1-15.21L29.1-15.21Q29.1-30.66 43.14-30.66L43.14-30.66Q45.19-30.66 47.12-30.24 49.05-29.81 50.24-29.17 51.44-28.54 51.44-27.95L51.44-27.95Q51.44-27.59 51.18-26.98 50.93-26.37 50.58-25.9 50.24-25.44 49.97-25.44L49.97-25.44Q49.85-25.44 49.29-25.76L49.29-25.76Q48.02-26.44 46.63-26.9 45.24-27.37 43.23-27.37L43.23-27.37Q37.99-27.37 35.51-24.45 33.03-21.53 33.03-15.16L33.03-15.16Q33.03-8.94 35.48-5.99 37.94-3.05 43.06-3.05L43.06-3.05Q45.21-3.05 46.75-3.56 48.29-4.08 49.7-4.83L49.7-4.83Q50.39-5.2 50.53-5.2L50.53-5.2Q50.8-5.2 51.16-4.74 51.51-4.27 51.78-3.7 52.05-3.13 52.05-2.88L52.05-2.88Q52.05-2.27 50.82-1.53 49.58-0.78 47.52-0.27 45.46 0.24 43.06 0.24L43.06 0.24Z" opacity="1" transform="matrix(1,0,0,1,0,0)" fill="#c9efc7" class="undefined-text-0" data-fill-palette-color="primary" id="text-0"></path></svg></g></svg></g></svg></g></svg></g><g transform="matrix(1,0,0,1,451.543667712,57.33342876342774)"><svg viewBox="0 0 122.21568 122.64514247314453" height="122.64514247314453" width="122.21568"><g><svg xmlns="http://www.w3.org/2000/svg" data-name="Layer 1" viewBox="2 2 60 60.210838317871094" x="0" y="0" height="122.64514247314453" width="122.21568" class="icon-icon-0" data-fill-palette-color="accent" id="icon-0"><path d="M31.811 19.07l2.7 0.736c0.065 0.171 0.135 0.34 0.213 0.508l-1.395 2.435a1 1 0 0 0 0.088 1.123 11.236 11.236 0 0 0 0.808 0.906 11.081 11.081 0 0 0 0.907 0.808 1 1 0 0 0 1.123 0.088l2.434-1.395c0.168 0.077 0.338 0.149 0.508 0.213l0.736 2.7a1 1 0 0 0 0.855 0.732 11.05 11.05 0 0 0 2.43 0 1 1 0 0 0 0.855-0.732l0.736-2.7c0.17-0.064 0.34-0.136 0.508-0.213l2.434 1.395a1 1 0 0 0 1.123-0.088 11.081 11.081 0 0 0 0.907-0.808 10.759 10.759 0 0 0 0.808-0.907 1 1 0 0 0 0.088-1.122l-1.4-2.435c0.077-0.168 0.149-0.338 0.213-0.508l2.7-0.736a1 1 0 0 0 0.732-0.854 11.109 11.109 0 0 0 0-2.432 1 1 0 0 0-0.732-0.854l-2.7-0.736c-0.064-0.17-0.136-0.34-0.213-0.508l1.4-2.435a1 1 0 0 0-0.088-1.122 10.936 10.936 0 0 0-0.808-0.908 11.256 11.256 0 0 0-0.907-0.807 1 1 0 0 0-1.123-0.088L45.32 9.721c-0.168-0.078-0.338-0.149-0.508-0.213l-0.735-2.7a1 1 0 0 0-0.856-0.732 11.091 11.091 0 0 0-2.43 0 1 1 0 0 0-0.855 0.732l-0.736 2.7c-0.17 0.064-0.34 0.136-0.508 0.213L36.258 8.326a1 1 0 0 0-1.123 0.088 11.081 11.081 0 0 0-0.907 0.808 11.236 11.236 0 0 0-0.808 0.906 1 1 0 0 0-0.088 1.123l1.395 2.435c-0.078 0.168-0.148 0.337-0.213 0.508l-2.7 0.735a1 1 0 0 0-0.732 0.855 11.1 11.1 0 0 0 0 2.431A1 1 0 0 0 31.811 19.07Zm1.207-2.4l2.535-0.689a1 1 0 0 0 0.7-0.682 5.955 5.955 0 0 1 0.489-1.169 1 1 0 0 0-0.01-0.976l-1.311-2.288c0.073-0.078 0.147-0.157 0.224-0.233s0.154-0.151 0.233-0.224l2.288 1.31a1 1 0 0 0 0.975 0.011 5.92 5.92 0 0 1 1.169-0.488 1 1 0 0 0 0.683-0.7l0.69-2.535c0.218-0.008 0.435-0.008 0.653 0l0.688 2.535a1 1 0 0 0 0.684 0.7 5.928 5.928 0 0 1 1.17 0.488 1 1 0 0 0 0.975-0.011l2.287-1.31c0.079 0.073 0.156 0.148 0.233 0.224s0.151 0.154 0.224 0.233l-1.31 2.288a1 1 0 0 0-0.011 0.975 5.98 5.98 0 0 1 0.488 1.169 1 1 0 0 0 0.7 0.683l2.536 0.69q0.012 0.325 0 0.653l-2.536 0.689a1 1 0 0 0-0.7 0.683 5.98 5.98 0 0 1-0.488 1.169 1 1 0 0 0 0.011 0.975l1.31 2.288c-0.073 0.078-0.147 0.156-0.223 0.233s-0.155 0.151-0.234 0.224l-2.287-1.31a1 1 0 0 0-0.975-0.011 5.963 5.963 0 0 1-1.17 0.488 1 1 0 0 0-0.684 0.7l-0.689 2.535q-0.327 0.012-0.652 0l-0.69-2.535a1 1 0 0 0-0.683-0.7 5.92 5.92 0 0 1-1.169-0.488 1 1 0 0 0-0.975 0.011l-2.288 1.31c-0.079-0.073-0.156-0.147-0.233-0.224s-0.151-0.155-0.224-0.233l1.311-2.288a1 1 0 0 0 0.01-0.976A5.955 5.955 0 0 1 36.25 18.7a1 1 0 0 0-0.7-0.682l-2.535-0.69Q33.006 17 33.018 16.673Z" fill="#31c48d" data-fill-palette-color="accent"></path><path d="M42.006 21a4 4 0 1 0-4-4A4 4 0 0 0 42.006 21Zm0-6a2 2 0 1 1-2 2A2 2 0 0 1 42.006 15Z" fill="#31c48d" data-fill-palette-color="accent"></path><rect x="52" y="6" width="2" height="2" fill="#31c48d" data-fill-palette-color="accent"></rect><rect x="56" y="6" width="2" height="2" fill="#31c48d" data-fill-palette-color="accent"></rect><path d="M3 62H28a1 1 0 0 0 1-1V56a1 1 0 0 0-1-1H3a1 1 0 0 0-1 1v5A1 1 0 0 0 3 62Zm1-5H27v3H4Z" fill="#31c48d" data-fill-palette-color="accent"></path><path d="M61 2H23a1 1 0 0 0-1 1V25.624A11.99 11.99 0 1 0 28 36H39v6H32a1 1 0 0 0-1 1v5a1 1 0 0 0 1 1H52a1 1 0 0 0 1-1V43a1 1 0 0 0-1-1H45V36H61a1 1 0 0 0 1-1V3A1 1 0 0 0 61 2ZM16 46a10 10 0 1 1 7.466-16.63c0.093 0.105 0.19 0.2 0.278 0.314 0.076 0.092 0.143 0.191 0.215 0.286 0.137 0.182 0.275 0.364 0.4 0.557 0.033 0.05 0.062 0.1 0.094 0.153 0.151 0.242 0.3 0.489 0.429 0.746 0.022 0.041 0.04 0.084 0.061 0.125 0.122 0.246 0.237 0.494 0.338 0.746 0.019 0.046 0.034 0.094 0.052 0.141 0.1 0.249 0.184 0.5 0.259 0.757 0.016 0.055 0.028 0.111 0.043 0.167 0.07 0.253 0.134 0.508 0.183 0.766 0.009 0.046 0.013 0.093 0.021 0.139 0.048 0.272 0.09 0.546 0.115 0.823h0c0.027 0.3 0.046 0.6 0.046 0.909A10.011 10.011 0 0 1 16 46Zm35-2v3H33V44H51ZM41 42V36h2v6Zm19-8H27.828c-0.008-0.049-0.022-0.1-0.031-0.145-0.039-0.217-0.087-0.431-0.138-0.644-0.033-0.141-0.069-0.28-0.108-0.419-0.061-0.22-0.127-0.438-0.2-0.654-0.016-0.045-0.027-0.092-0.043-0.138H60Zm0-4H26.384c-0.07-0.122-0.15-0.236-0.224-0.355-0.086-0.138-0.167-0.278-0.259-0.412-0.2-0.3-0.416-0.582-0.641-0.857l-0.02-0.022c-0.229-0.278-0.473-0.543-0.726-0.8l-0.1-0.1c-0.136-0.134-0.268-0.271-0.411-0.4V4H60Z" fill="#31c48d" data-fill-palette-color="accent"></path><path d="M16 32a4 4 0 1 0 4 4A4 4 0 0 0 16 32Zm0 6a2 2 0 1 1 2-2A2 2 0 0 1 16 38Z" fill="#31c48d" data-fill-palette-color="accent"></path><rect x="4" y="46" width="2" height="7" fill="#31c48d" data-fill-palette-color="accent"></rect><rect x="25" y="46" width="2" height="7" fill="#31c48d" data-fill-palette-color="accent"></rect><rect x="21" y="49" width="2" height="4" fill="#31c48d" data-fill-palette-color="accent"></rect><rect x="8" y="49" width="2" height="4" fill="#31c48d" data-fill-palette-color="accent"></rect><rect x="12" y="51" width="2" height="2" fill="#31c48d" data-fill-palette-color="accent"></rect><rect x="17" y="51" width="2" height="2" fill="#31c48d" data-fill-palette-color="accent"></rect><path d="M60.981 52.7a3.888 3.888 0 0 0-0.36-0.806c-0.011-0.019-0.025-0.037-0.037-0.056a3.693 3.693 0 0 0-0.535-0.687 3.732 3.732 0 0 0-0.683-0.533c-0.021-0.013-0.04-0.028-0.061-0.04a3.953 3.953 0 0 0-0.8-0.357l-0.028-0.009a6.3 6.3 0 0 0-5.035 0.883l-0.039 0.023a9.518 9.518 0 0 0-0.956 0.667c-0.018 0.014-0.037 0.024-0.054 0.038h0c-0.025 0.02-0.048 0.045-0.073 0.065-0.257 0.211-0.511 0.432-0.756 0.677-2.775 2.776-3.4 6.5-1.414 8.485a4.125 4.125 0 0 0 2.992 1.159 5.6 5.6 0 0 0 0.678-0.042 8.027 8.027 0 0 0 3.94-1.761 10.078 10.078 0 0 0 0.876-0.77l0.013-0.014c0.239-0.241 0.457-0.49 0.664-0.743 0.02-0.024 0.045-0.047 0.064-0.072h0c0.014-0.017 0.024-0.036 0.037-0.053a9.4 9.4 0 0 0 0.67-0.961l0.019-0.032a6.29 6.29 0 0 0 0.884-5.043Zm-6.161-0.077c0.088-0.046 0.176-0.094 0.264-0.135s0.2-0.086 0.3-0.126 0.176-0.072 0.264-0.1 0.186-0.06 0.279-0.086 0.188-0.052 0.28-0.073 0.166-0.034 0.248-0.048c0.1-0.016 0.2-0.028 0.3-0.037 0.07-0.006 0.141-0.012 0.209-0.014 0.106 0 0.209 0 0.31 0.008 0.059 0 0.119 0.006 0.176 0.014a2.345 2.345 0 0 1 0.26 0.054l-1.9 1.9L54.579 52.75C54.659 52.7 54.74 52.664 54.82 52.622Zm2.4 5.6c-1.917 1.916-4.508 2.563-5.657 1.414a1.966 1.966 0 0 1-0.534-1.1A3.076 3.076 0 0 1 51 57.845c0-0.046 0.018-0.1 0.023-0.143a4.893 4.893 0 0 1 0.361-1.395 7.376 7.376 0 0 1 1.593-2.328h0l4.242 4.243Zm1.965-3.793a4.211 4.211 0 0 1-0.095 0.6c-0.014 0.059-0.03 0.119-0.047 0.179a5.449 5.449 0 0 1-0.2 0.6c-0.017 0.042-0.031 0.084-0.049 0.127a6.735 6.735 0 0 1-0.347 0.689l-1.227-1.227 1.9-1.9c0.006 0.021 0.015 0.041 0.02 0.062 0.011 0.056 0.026 0.11 0.035 0.168a3.151 3.151 0 0 1 0.026 0.612C59.2 54.367 59.189 54.4 59.186 54.428Z" fill="#31c48d" data-fill-palette-color="accent"></path></svg></g></svg></g></svg></g><defs></defs></svg><rect width="395.52" height="163.5906109665931" fill="none" stroke="none" visibility="hidden"></rect></g></svg></g></svg>